<?xml version="1.0" standalone="no"?>
<!DOCTYPE svg PUBLIC "-//W3C//DTD SVG 20010904//EN"
 "http://www.w3.org/TR/2001/REC-SVG-20010904/DTD/svg10.dtd">
<svg version="1.0" xmlns="http://www.w3.org/2000/svg"
 width="343.000000pt" height="395.000000pt" viewBox="0 0 343.000000 395.000000"
 preserveAspectRatio="xMidYMid meet">

<g transform="translate(0.000000,395.000000) scale(0.100000,-0.100000)"
fill="#000000" stroke="none">
<path d="M160 1970 l0 -1750 1575 0 1575 0 0 1750 0 1750 -1575 0 -1575 0 0
-1750z m3120 0 l0 -1720 -1545 0 -1545 0 0 1720 0 1720 1545 0 1545 0 0 -1720z"/>
<path d="M260 1970 l0 -1650 1475 0 1475 0 0 1650 0 1650 -1475 0 -1475 0 0
-1650z m2930 0 l0 -1630 -1455 0 -1455 0 0 1630 0 1630 1455 0 1455 0 0 -1630z"/>
<path d="M1545 2995 c-80 -28 -134 -121 -120 -206 4 -22 9 -39 12 -39 3 0 17
9 33 20 44 31 81 42 142 41 59 -1 119 -20 150 -48 22 -20 27 -15 34 29 14 84
-50 184 -131 207 -51 14 -71 13 -120 -4z"/>
<path d="M1808 3003 c-23 -6 -23 -6 10 -55 24 -37 27 -50 27 -128 0 -78 -3
-91 -28 -129 -16 -24 -26 -45 -24 -47 12 -12 77 -15 114 -5 75 20 142 101 143
171 1 128 -121 225 -242 193z"/>
<path d="M1540 2745 c-65 -30 -101 -76 -114 -147 -22 -120 93 -233 215 -213
22 4 39 9 39 11 0 2 -12 22 -26 43 -49 75 -47 197 5 270 13 18 21 35 17 38
-14 14 -103 12 -136 -2z"/>
<path d="M1675 2610 c-22 -99 53 -208 154 -225 120 -20 237 94 217 213 -3 19
-7 37 -10 39 -2 2 -23 -8 -47 -24 -38 -25 -51 -28 -129 -28 -78 0 -91 3 -128
28 -23 15 -44 27 -46 27 -2 0 -7 -14 -11 -30z"/>
<path d="M950 1490 l0 -490 95 0 95 0 2 203 3 202 128 3 127 3 0 94 0 95 -130
0 -130 0 0 100 0 100 170 0 170 0 0 90 0 90 -265 0 -265 0 0 -490z m434 414
c42 -16 -10 -24 -160 -24 l-164 0 0 -180 0 -179 135 -3 c82 -2 135 -7 135 -13
0 -6 -53 -11 -135 -13 l-135 -3 0 -192 c0 -107 -5 -199 -10 -207 -6 -10 -10
127 -10 396 0 226 3 414 7 417 8 9 316 9 337 1z"/>
<path d="M1690 1490 l0 -491 93 3 92 3 3 275 4 275 72 -266 c40 -146 76 -271
80 -277 10 -16 121 -16 133 1 5 6 42 125 82 262 40 138 77 257 82 265 5 9 9
-96 8 -260 l0 -275 90 -3 91 -3 0 491 0 491 -112 -3 -112 -3 -95 -292 c-52
-161 -97 -293 -101 -293 -4 0 -63 189 -167 543 l-15 47 -114 0 -114 0 0 -490z
m157 408 c6 -7 64 -174 129 -370 65 -197 121 -358 124 -358 3 0 58 161 124
358 65 196 123 363 129 370 12 15 59 16 75 0 15 -15 17 -803 2 -813 -7 -4 -10
130 -10 394 l0 401 -29 0 c-29 0 -29 -1 -109 -232 -44 -128 -101 -299 -127
-380 -27 -82 -51 -148 -55 -148 -4 0 -63 170 -132 378 -120 365 -125 377 -151
380 l-27 3 0 -385 c0 -211 -3 -391 -6 -400 -19 -49 -24 33 -24 393 0 295 3
400 12 409 16 16 63 15 75 0z"/>
</g>
</svg>
