<?xml version="1.0" encoding="UTF-8"?>
<!DOCTYPE svg PUBLIC "-//W3C//DTD SVG 1.1//EN" "http://www.w3.org/Graphics/SVG/1.1/DTD/svg11.dtd">
<svg xmlns="http://www.w3.org/2000/svg" version="1.1" width="343px" height="395px" style="shape-rendering:geometricPrecision; text-rendering:geometricPrecision; image-rendering:optimizeQuality; fill-rule:evenodd; clip-rule:evenodd" xmlns:xlink="http://www.w3.org/1999/xlink">
<g><path style="opacity:1" fill="#e5feec" d="M -0.5,-0.5 C 113.833,-0.5 228.167,-0.5 342.5,-0.5C 342.5,131.167 342.5,262.833 342.5,394.5C 228.167,394.5 113.833,394.5 -0.5,394.5C -0.5,262.833 -0.5,131.167 -0.5,-0.5 Z"/></g>
<g><path style="opacity:1" fill="#033435" d="M 15.5,22.5 C 120.5,22.5 225.5,22.5 330.5,22.5C 330.5,139.167 330.5,255.833 330.5,372.5C 327.167,372.5 323.833,372.5 320.5,372.5C 320.167,372.5 319.833,372.5 319.5,372.5C 223.5,372.5 127.5,372.5 31.5,372.5C 127.671,372.166 223.671,371.166 319.5,369.5C 322.167,369.5 324.833,369.5 327.5,369.5C 327.5,254.833 327.5,140.167 327.5,25.5C 319.5,25.5 311.5,25.5 303.5,25.5C 258.505,24.1667 213.172,23.5001 167.5,23.5C 122.167,23.6667 76.8333,23.8333 31.5,24C 37.0158,24.1733 42.3491,24.6733 47.5,25.5C 37.8333,25.5 28.1667,25.5 18.5,25.5C 18.5,32.8333 18.5,40.1667 18.5,47.5C 16.8339,148.663 15.8339,249.996 15.5,351.5C 15.5,241.833 15.5,132.167 15.5,22.5 Z"/></g>
<g><path style="opacity:1" fill="#02343f" d="M 303.5,25.5 C 218.167,25.5 132.833,25.5 47.5,25.5C 42.3491,24.6733 37.0158,24.1733 31.5,24C 76.8333,23.8333 122.167,23.6667 167.5,23.5C 213.172,23.5001 258.505,24.1667 303.5,25.5 Z"/></g>
<g><path style="opacity:1" fill="#abd6cf" d="M 47.5,25.5 C 132.833,25.5 218.167,25.5 303.5,25.5C 311.5,25.5 319.5,25.5 327.5,25.5C 327.5,140.167 327.5,254.833 327.5,369.5C 324.833,369.5 322.167,369.5 319.5,369.5C 219.167,369.5 118.833,369.5 18.5,369.5C 18.5,262.167 18.5,154.833 18.5,47.5C 18.5,40.1667 18.5,32.8333 18.5,25.5C 28.1667,25.5 37.8333,25.5 47.5,25.5 Z"/></g>
<g><path style="opacity:1" fill="#e2feeb" d="M 303.5,26.5 C 309.653,27.3279 315.987,27.8279 322.5,28C 323.849,28.7724 324.682,29.9391 325,31.5C 325.5,143.5 325.667,255.5 325.5,367.5C 324.167,367.5 322.833,367.5 321.5,367.5C 322.828,255.36 322.828,143.36 321.5,31.5C 222.5,31.5 123.5,31.5 24.5,31.5C 24.5,142.167 24.5,252.833 24.5,363.5C 26.2786,366.429 28.612,366.929 31.5,365C 127.499,364.5 223.499,364.333 319.5,364.5C 319.5,365.833 319.5,367.167 319.5,368.5C 219.5,368.5 119.5,368.5 19.5,368.5C 19.5,254.5 19.5,140.5 19.5,26.5C 114.167,26.5 208.833,26.5 303.5,26.5 Z"/></g>
<g><path style="opacity:1" fill="#03333c" d="M 18.5,47.5 C 18.5,154.833 18.5,262.167 18.5,369.5C 118.833,369.5 219.167,369.5 319.5,369.5C 223.671,371.166 127.671,372.166 31.5,372.5C 26.1667,372.5 20.8333,372.5 15.5,372.5C 15.5,365.5 15.5,358.5 15.5,351.5C 15.8339,249.996 16.8339,148.663 18.5,47.5 Z"/></g>
<g><path style="opacity:1" fill="#d9fef6" d="M 320.5,372.5 C 323.833,372.5 327.167,372.5 330.5,372.5C 330.5,255.833 330.5,139.167 330.5,22.5C 225.5,22.5 120.5,22.5 15.5,22.5C 17.7432,21.1883 20.4098,20.5217 23.5,20.5C 126.161,21.3155 228.827,21.8155 331.5,22C 332.167,22.6667 332.833,23.3333 333.5,24C 332.335,137.764 332.168,251.597 333,365.5C 333.273,368.393 334.107,371.06 335.5,373.5C 335.333,374.167 335.167,374.833 335,375.5C 330.558,373.983 326.058,373.649 321.5,374.5C 320.702,374.043 320.369,373.376 320.5,372.5 Z"/></g>
<g><path style="opacity:1" fill="#dcfef3" d="M 303.5,26.5 C 311.167,26.5 318.833,26.5 326.5,26.5C 326.5,140.5 326.5,254.5 326.5,368.5C 324.167,368.5 321.833,368.5 319.5,368.5C 319.5,367.167 319.5,365.833 319.5,364.5C 223.499,364.333 127.499,364.5 31.5,365C 28.612,366.929 26.2786,366.429 24.5,363.5C 123.5,363.5 222.5,363.5 321.5,363.5C 321.5,252.833 321.5,142.167 321.5,31.5C 322.828,143.36 322.828,255.36 321.5,367.5C 322.833,367.5 324.167,367.5 325.5,367.5C 325.667,255.5 325.5,143.5 325,31.5C 324.682,29.9391 323.849,28.7724 322.5,28C 315.987,27.8279 309.653,27.3279 303.5,26.5 Z"/></g>
<g><path style="opacity:1" fill="#6fa29c" d="M 321.5,31.5 C 321.5,142.167 321.5,252.833 321.5,363.5C 222.5,363.5 123.5,363.5 24.5,363.5C 24.5,252.833 24.5,142.167 24.5,31.5C 123.5,31.5 222.5,31.5 321.5,31.5 Z"/></g>
<g><path style="opacity:1" fill="#003739" d="M 25.5,32.5 C 123.833,32.5 222.167,32.5 320.5,32.5C 320.5,142.5 320.5,252.5 320.5,362.5C 222.167,362.5 123.833,362.5 25.5,362.5C 25.5,252.5 25.5,142.5 25.5,32.5 Z"/></g>
<g><path style="opacity:1" fill="#71a2a0" d="M 27.5,34.5 C 124.5,34.5 221.5,34.5 318.5,34.5C 318.5,143.167 318.5,251.833 318.5,360.5C 221.5,360.5 124.5,360.5 27.5,360.5C 27.5,251.833 27.5,143.167 27.5,34.5 Z"/></g>
<g><path style="opacity:1" fill="#e1fef1" d="M 28.5,35.5 C 124.833,35.5 221.167,35.5 317.5,35.5C 317.5,143.5 317.5,251.5 317.5,359.5C 221.167,359.5 124.833,359.5 28.5,359.5C 28.5,251.5 28.5,143.5 28.5,35.5 Z"/></g>
<g><path style="opacity:1" fill="#e5feeb" d="M 30.5,38.5 C 124.289,40.3274 218.289,41.1608 312.5,41C 313.308,41.3076 313.975,41.8076 314.5,42.5C 220.169,43.5 125.836,43.8333 31.5,43.5C 31.5,44.5 31.5,45.5 31.5,46.5C 124.685,46.8273 217.851,46.4939 311,45.5C 312.895,45.6148 314.562,46.2815 316,47.5C 316.5,151.166 316.667,254.833 316.5,358.5C 221.126,358.831 125.793,358.498 30.5,357.5C 29.1692,251.098 29.1692,144.765 30.5,38.5 Z"/></g>
<g><path style="opacity:1" fill="#dfefed" d="M 168.5,196.5 C 168.5,229.167 168.5,261.833 168.5,294.5C 174.69,294.823 180.69,294.49 186.5,293.5C 187.167,275.5 187.833,257.5 188.5,239.5C 190.009,246.534 191.675,253.534 193.5,260.5C 192.065,259.21 191.065,257.544 190.5,255.5C 189.46,263.802 188.794,272.135 188.5,280.5C 188.284,284.691 188.95,288.691 190.5,292.5C 189.313,293.519 188.313,294.686 187.5,296C 180.833,296.667 174.167,296.667 167.5,296C 167,295.5 166.5,295 166,294.5C 166.126,262.172 166.459,229.839 167,197.5C 167.383,196.944 167.883,196.611 168.5,196.5 Z"/></g>
<g><path style="opacity:1" fill="#1b1541" d="M 232.5,239.5 C 232.167,240.167 231.833,240.833 231.5,241.5C 228.52,251.42 225.853,261.42 223.5,271.5C 220.594,278.891 218.261,286.558 216.5,294.5C 211.833,294.5 207.167,294.5 202.5,294.5C 202.007,292.194 201.674,289.861 201.5,287.5C 204.444,292.246 208.611,293.579 214,291.5C 214.824,288.118 214.657,284.784 213.5,281.5C 210.841,289.239 208.841,288.906 207.5,280.5C 208.151,281.091 208.818,281.757 209.5,282.5C 213.193,272.411 216.86,262.411 220.5,252.5C 219.038,259.398 217.038,266.231 214.5,273C 215.367,276.105 215.701,279.272 215.5,282.5C 216.5,282.5 217.5,282.5 218.5,282.5C 217.996,278.493 217.83,274.493 218,270.5C 219.61,268.403 220.777,266.07 221.5,263.5C 222.541,265.991 223.374,265.991 224,263.5C 225.73,255.444 227.563,247.444 229.5,239.5C 230.5,239.5 231.5,239.5 232.5,239.5 Z"/></g>
<g><path style="opacity:1" fill="#e6f7f5" d="M 231.5,241.5 C 232.167,258.833 232.833,276.167 233.5,293.5C 239.31,294.49 245.31,294.823 251.5,294.5C 245.346,295.707 239.013,296.207 232.5,296C 231.735,285.397 231.069,274.731 230.5,264C 230.651,261.803 230.985,259.636 231.5,257.5C 231.167,256.833 230.833,256.167 230.5,255.5C 228.049,260.543 227.049,265.877 227.5,271.5C 226.167,271.5 224.833,271.5 223.5,271.5C 225.853,261.42 228.52,251.42 231.5,241.5 Z"/></g>
<g><path style="opacity:1" fill="#19163b" d="M 250.5,196.5 C 251.498,228.996 251.832,261.662 251.5,294.5C 245.31,294.823 239.31,294.49 233.5,293.5C 233.5,275.833 233.5,258.167 233.5,240.5C 234.264,248.008 234.931,255.675 235.5,263.5C 234.414,272.812 234.248,282.145 235,291.5C 240,292.833 245,292.833 250,291.5C 250.5,259.835 250.667,228.168 250.5,196.5 Z"/></g>
<g><path style="opacity:1" fill="#180d46" d="M 231.5,196.5 C 237.833,196.5 244.167,196.5 250.5,196.5C 250.667,228.168 250.5,259.835 250,291.5C 245,292.833 240,292.833 235,291.5C 234.248,282.145 234.414,272.812 235.5,263.5C 234.931,255.675 234.264,248.008 233.5,240.5C 233.539,238.776 233.206,238.443 232.5,239.5C 231.5,239.5 230.5,239.5 229.5,239.5C 227.563,247.444 225.73,255.444 224,263.5C 223.374,265.991 222.541,265.991 221.5,263.5C 220.777,266.07 219.61,268.403 218,270.5C 217.83,274.493 217.996,278.493 218.5,282.5C 217.5,282.5 216.5,282.5 215.5,282.5C 215.701,279.272 215.367,276.105 214.5,273C 217.038,266.231 219.038,259.398 220.5,252.5C 225.1,237.032 230.1,221.699 235.5,206.5C 237.167,206.5 238.833,206.5 240.5,206.5C 240.169,233.005 240.502,259.339 241.5,285.5C 241.56,286.043 241.893,286.376 242.5,286.5C 243.829,259.003 243.829,231.67 242.5,204.5C 240.052,203.527 237.385,203.194 234.5,203.5C 233.5,203.5 232.5,203.5 231.5,203.5C 231.399,207.857 230.232,211.857 228,215.5C 226.618,209.906 227.618,204.906 231,200.5C 231.49,199.207 231.657,197.873 231.5,196.5 Z"/></g>
<g><path style="opacity:1" fill="#161838" d="M 95.5,196.5 C 95.5,228.5 95.5,260.5 95.5,292.5C 100.833,292.5 106.167,292.5 111.5,292.5C 112.774,279.814 112.774,267.147 111.5,254.5C 111.957,253.702 112.624,253.369 113.5,253.5C 113.5,267.167 113.5,280.833 113.5,294.5C 106.978,294.823 100.645,294.49 94.5,293.5C 94.1684,260.996 94.5018,228.662 95.5,196.5 Z"/></g>
<g><path style="opacity:1" fill="#43485f" d="M 188.5,239.5 C 187.833,257.5 187.167,275.5 186.5,293.5C 186.333,274.83 186.5,256.164 187,237.5C 187.717,238.044 188.217,238.711 188.5,239.5 Z"/></g>
<g><path style="opacity:1" fill="#82899c" d="M 233.5,240.5 C 233.5,258.167 233.5,275.833 233.5,293.5C 232.833,276.167 232.167,258.833 231.5,241.5C 231.833,240.833 232.167,240.167 232.5,239.5C 233.206,238.443 233.539,238.776 233.5,240.5 Z"/></g>
<g><path style="opacity:1" fill="#1a0f48" d="M 95.5,196.5 C 111.5,196.5 127.5,196.5 143.5,196.5C 144.172,197.267 145.005,197.934 146,198.5C 146.499,203.489 146.666,208.489 146.5,213.5C 135.986,213.172 125.653,213.506 115.5,214.5C 114.18,217.428 113.514,220.761 113.5,224.5C 113.502,228.018 113.835,231.351 114.5,234.5C 122.013,236.177 129.846,237.177 138,237.5C 138.262,242.45 138.429,247.283 138.5,252C 130.989,252.171 123.655,252.671 116.5,253.5C 115.5,253.5 114.5,253.5 113.5,253.5C 112.624,253.369 111.957,253.702 111.5,254.5C 112.774,267.147 112.774,279.814 111.5,292.5C 106.167,292.5 100.833,292.5 95.5,292.5C 95.5,260.5 95.5,228.5 95.5,196.5 Z"/></g>
<g><path style="opacity:1" fill="#111236" d="M 105.5,245.5 C 114.167,245.5 122.833,245.5 131.5,245.5C 131.38,246.586 130.713,247.253 129.5,247.5C 121.839,246.291 114.173,246.291 106.5,247.5C 106.5,260.833 106.5,274.167 106.5,287.5C 105.209,287.737 104.209,287.404 103.5,286.5C 105.482,273.208 106.149,259.541 105.5,245.5 Z"/></g>
<g><path style="opacity:1" fill="#7d8895" d="M 105.5,245.5 C 106.149,259.541 105.482,273.208 103.5,286.5C 103.5,286.167 103.5,285.833 103.5,285.5C 104.167,272.167 104.833,258.833 105.5,245.5 Z"/></g>
<g><path style="opacity:1" fill="#190e44" d="M 170.5,198.5 C 176.254,197.908 182.254,197.741 188.5,198C 189.025,198.692 189.692,199.192 190.5,199.5C 191.746,204.936 193.246,210.269 195,215.5C 195.708,216.381 196.542,217.047 197.5,217.5C 200.769,226.643 203.436,235.976 205.5,245.5C 204.867,250.897 205.867,255.897 208.5,260.5C 207.098,261.842 207.431,262.676 209.5,263C 209.336,265.699 209.17,268.532 209,271.5C 207.112,265.991 204.945,260.658 202.5,255.5C 196.399,238.699 190.565,221.699 185,204.5C 182,203.167 179,203.167 176,204.5C 175.333,231.5 175.333,258.5 176,285.5C 177.625,286.412 178.459,285.745 178.5,283.5C 179.209,261.324 179.875,238.99 180.5,216.5C 180.034,213.508 179.701,210.508 179.5,207.5C 180.5,207.5 181.5,207.5 182.5,207.5C 184.183,212.663 184.85,217.996 184.5,223.5C 185.5,223.5 186.5,223.5 187.5,223.5C 188.592,229.091 190.425,234.424 193,239.5C 193.333,242.5 193.667,245.5 194,248.5C 194.414,248.043 194.914,247.709 195.5,247.5C 196.463,250.548 197.796,253.214 199.5,255.5C 202.922,263.497 205.589,271.831 207.5,280.5C 208.841,288.906 210.841,289.239 213.5,281.5C 214.657,284.784 214.824,288.118 214,291.5C 208.611,293.579 204.444,292.246 201.5,287.5C 198.695,278.629 196.028,269.629 193.5,260.5C 191.675,253.534 190.009,246.534 188.5,239.5C 188.217,238.711 187.717,238.044 187,237.5C 186.5,256.164 186.333,274.83 186.5,293.5C 182.629,293.815 178.962,293.482 175.5,292.5C 178.482,292.037 181.482,291.704 184.5,291.5C 184.649,290.448 184.483,289.448 184,288.5C 180.644,290.037 177.477,289.703 174.5,287.5C 173.667,258.172 173.167,228.839 173,199.5C 172.329,198.748 171.496,198.414 170.5,198.5 Z"/></g>
<g><path style="opacity:1" fill="#c5ccdb" d="M 202.5,255.5 C 204.062,262.742 206.395,269.742 209.5,276.5C 218.039,252.216 226.372,227.883 234.5,203.5C 237.385,203.194 240.052,203.527 242.5,204.5C 242.831,231.672 242.498,258.672 241.5,285.5C 241.5,258.833 241.5,232.167 241.5,205.5C 239.265,205.205 237.265,205.539 235.5,206.5C 230.1,221.699 225.1,237.032 220.5,252.5C 216.86,262.411 213.193,272.411 209.5,282.5C 208.818,281.757 208.151,281.091 207.5,280.5C 205.589,271.831 202.922,263.497 199.5,255.5C 194.638,239.415 189.472,223.415 184,207.5C 182.301,206.594 180.467,206.261 178.5,206.5C 178.5,232.167 178.5,257.833 178.5,283.5C 178.459,285.745 177.625,286.412 176,285.5C 175.333,258.5 175.333,231.5 176,204.5C 179,203.167 182,203.167 185,204.5C 190.565,221.699 196.399,238.699 202.5,255.5 Z"/></g>
<g><path style="opacity:1" fill="#454867" d="M 235.5,206.5 C 237.265,205.539 239.265,205.205 241.5,205.5C 241.5,232.167 241.5,258.833 241.5,285.5C 240.502,259.339 240.169,233.005 240.5,206.5C 238.833,206.5 237.167,206.5 235.5,206.5 Z"/></g>
<g><path style="opacity:1" fill="#19143c" d="M 199.5,255.5 C 197.796,253.214 196.463,250.548 195.5,247.5C 194.914,247.709 194.414,248.043 194,248.5C 193.667,245.5 193.333,242.5 193,239.5C 190.425,234.424 188.592,229.091 187.5,223.5C 186.5,223.5 185.5,223.5 184.5,223.5C 184.85,217.996 184.183,212.663 182.5,207.5C 181.5,207.5 180.5,207.5 179.5,207.5C 179.701,210.508 180.034,213.508 180.5,216.5C 179.875,238.99 179.209,261.324 178.5,283.5C 178.5,257.833 178.5,232.167 178.5,206.5C 180.467,206.261 182.301,206.594 184,207.5C 189.472,223.415 194.638,239.415 199.5,255.5 Z"/></g>
<g><path style="opacity:1" fill="#1e1e3f" d="M 114.5,234.5 C 122.833,234.5 131.167,234.5 139.5,234.5C 139.5,240.833 139.5,247.167 139.5,253.5C 131.833,253.5 124.167,253.5 116.5,253.5C 123.655,252.671 130.989,252.171 138.5,252C 138.429,247.283 138.262,242.45 138,237.5C 129.846,237.177 122.013,236.177 114.5,234.5 Z"/></g>
<g><path style="opacity:1" fill="#e3f4ee" d="M 197.5,217.5 C 198.497,217.47 199.164,217.97 199.5,219C 200.744,222.81 201.911,226.644 203,230.5C 205.401,233.57 206.401,236.904 206,240.5C 207.356,239.62 208.856,239.286 210.5,239.5C 210.5,240.5 210.5,241.5 210.5,242.5C 211.5,242.5 212.5,242.5 213.5,242.5C 213.518,239.264 214.518,236.597 216.5,234.5C 214.768,241.696 212.435,248.696 209.5,255.5C 208.156,252.072 206.822,248.739 205.5,245.5C 203.436,235.976 200.769,226.643 197.5,217.5 Z"/></g>
<g><path style="opacity:1" fill="#1a1344" d="M 231.5,196.5 C 231.657,197.873 231.49,199.207 231,200.5C 227.618,204.906 226.618,209.906 228,215.5C 230.232,211.857 231.399,207.857 231.5,203.5C 232.5,203.5 233.5,203.5 234.5,203.5C 226.372,227.883 218.039,252.216 209.5,276.5C 206.395,269.742 204.062,262.742 202.5,255.5C 204.945,260.658 207.112,265.991 209,271.5C 209.17,268.532 209.336,265.699 209.5,263C 207.431,262.676 207.098,261.842 208.5,260.5C 205.867,255.897 204.867,250.897 205.5,245.5C 206.822,248.739 208.156,252.072 209.5,255.5C 212.435,248.696 214.768,241.696 216.5,234.5C 220.726,222.323 224.893,209.99 229,197.5C 229.671,196.748 230.504,196.414 231.5,196.5 Z"/></g>
<g><path style="opacity:1" fill="#cdd8e1" d="M 139.5,234.5 C 131.167,234.5 122.833,234.5 114.5,234.5C 113.835,231.351 113.502,228.018 113.5,224.5C 113.514,220.761 114.18,217.428 115.5,214.5C 126.167,214.5 136.833,214.5 147.5,214.5C 147.5,208.5 147.5,202.5 147.5,196.5C 146.167,196.5 144.833,196.5 143.5,196.5C 127.5,196.5 111.5,196.5 95.5,196.5C 94.5018,228.662 94.1684,260.996 94.5,293.5C 93.5017,260.671 93.1684,227.671 93.5,194.5C 112.5,194.5 131.5,194.5 150.5,194.5C 149.317,200.522 149.317,206.522 150.5,212.5C 150.154,213.696 149.654,213.696 149,212.5C 148.517,213.448 148.351,214.448 148.5,215.5C 137.5,215.5 126.5,215.5 115.5,215.5C 115.192,221.425 115.525,227.259 116.5,233C 124.344,233.171 132.011,233.671 139.5,234.5 Z"/></g>
<g><path style="opacity:1" fill="#19173d" d="M 168.5,196.5 C 176.196,196.169 183.862,196.503 191.5,197.5C 193.707,204.119 195.707,210.786 197.5,217.5C 196.542,217.047 195.708,216.381 195,215.5C 193.246,210.269 191.746,204.936 190.5,199.5C 189.692,199.192 189.025,198.692 188.5,198C 182.254,197.741 176.254,197.908 170.5,198.5C 169.336,228.997 169.169,259.664 170,290.5C 171.401,292.192 173.234,292.859 175.5,292.5C 178.962,293.482 182.629,293.815 186.5,293.5C 180.69,294.49 174.69,294.823 168.5,294.5C 168.5,261.833 168.5,229.167 168.5,196.5 Z"/></g>
<g><path style="opacity:1" fill="#13162d" d="M 143.5,196.5 C 144.833,196.5 146.167,196.5 147.5,196.5C 147.5,202.5 147.5,208.5 147.5,214.5C 136.833,214.5 126.167,214.5 115.5,214.5C 125.653,213.506 135.986,213.172 146.5,213.5C 146.666,208.489 146.499,203.489 146,198.5C 145.005,197.934 144.172,197.267 143.5,196.5 Z"/></g>
<g><path style="opacity:1" fill="#b9c1cf" d="M 131.5,245.5 C 122.833,245.5 114.167,245.5 105.5,245.5C 104.833,258.833 104.167,272.167 103.5,285.5C 103.5,258.167 103.5,230.833 103.5,203.5C 115.661,203.022 127.661,203.522 139.5,205C 128.329,206.477 116.996,206.977 105.5,206.5C 105.5,218.5 105.5,230.5 105.5,242.5C 114.506,242.334 123.506,242.5 132.5,243C 133.883,244.461 133.549,245.294 131.5,245.5 Z"/></g>
<g><path style="opacity:1" fill="#84899a" d="M 242.5,204.5 C 243.829,231.67 243.829,259.003 242.5,286.5C 241.893,286.376 241.56,286.043 241.5,285.5C 242.498,258.672 242.831,231.672 242.5,204.5 Z"/></g>
<g><path style="opacity:1" fill="#180c49" d="M 170.5,198.5 C 171.496,198.414 172.329,198.748 173,199.5C 173.167,228.839 173.667,258.172 174.5,287.5C 177.477,289.703 180.644,290.037 184,288.5C 184.483,289.448 184.649,290.448 184.5,291.5C 181.482,291.704 178.482,292.037 175.5,292.5C 173.234,292.859 171.401,292.192 170,290.5C 169.169,259.664 169.336,228.997 170.5,198.5 Z"/></g>
<g><path style="opacity:1" fill="#d3fad3" d="M 204.5,133.5 C 206.026,134.492 206.693,135.992 206.5,138C 205.872,142.833 204.372,147.333 202,151.5C 199.715,152.819 197.548,154.319 195.5,156C 192.851,156.452 190.351,157.286 188,158.5C 185.723,157.883 183.556,157.216 181.5,156.5C 196.833,156.5 204.5,148.833 204.5,133.5 Z"/></g>
<g><path style="opacity:1" fill="#0d6509" d="M 200.5,131.5 C 202.59,130.209 203.924,130.876 204.5,133.5C 204.5,148.833 196.833,156.5 181.5,156.5C 181.167,156.5 180.833,156.5 180.5,156.5C 168.874,151.253 164.874,142.586 168.5,130.5C 179.027,138.108 189.694,138.441 200.5,131.5 Z"/></g>
<g><path style="opacity:1" fill="#0d6508" d="M 167.5,155.5 C 154.871,158.374 146.371,153.707 142,141.5C 140.662,133.001 143.496,126.334 150.5,121.5C 156.035,118.045 161.701,117.711 167.5,120.5C 161.911,127.196 160.078,134.863 162,143.5C 163.588,147.672 165.421,151.672 167.5,155.5 Z"/></g>
<g><path style="opacity:1" fill="#dbfbdf" d="M 194.5,95.5 C 191.459,94.3218 188.292,93.6551 185,93.5C 182.53,93.3403 180.364,94.0069 178.5,95.5C 186.458,106.767 186.458,118.1 178.5,129.5C 184.267,132.196 189.934,131.863 195.5,128.5C 195.631,129.239 195.464,129.906 195,130.5C 193.414,131.376 191.914,132.376 190.5,133.5C 191,133.833 191.5,134.167 192,134.5C 194.705,133.061 197.538,132.061 200.5,131.5C 189.694,138.441 179.027,138.108 168.5,130.5C 164.874,142.586 168.874,151.253 180.5,156.5C 176.522,157.034 173.522,155.534 171.5,152C 170.552,151.517 169.552,151.351 168.5,151.5C 168.768,153.099 168.434,154.432 167.5,155.5C 165.421,151.672 163.588,147.672 162,143.5C 160.078,134.863 161.911,127.196 167.5,120.5C 161.701,117.711 156.035,118.045 150.5,121.5C 150.574,119.589 151.574,118.422 153.5,118C 156.167,117.667 158.833,117.333 161.5,117C 162.993,115.844 162.826,115.01 161,114.5C 159.667,115.833 158.333,115.833 157,114.5C 152.704,116.072 148.538,117.739 144.5,119.5C 154.275,112.211 164.609,111.544 175.5,117.5C 175.5,118.167 175.833,118.5 176.5,118.5C 177.302,119.885 177.969,119.718 178.5,118C 180.203,112.487 179.536,107.321 176.5,102.5C 178.017,102.511 179.184,103.177 180,104.5C 180.167,103.833 180.333,103.167 180.5,102.5C 178.861,99.8513 177.194,97.1847 175.5,94.5C 175.709,93.914 176.043,93.414 176.5,93C 182.962,90.7987 189.295,91.132 195.5,94C 194.944,94.3826 194.611,94.8826 194.5,95.5 Z"/></g>
<g><path style="opacity:1" fill="#1b6315" d="M 176.5,102.5 C 179.536,107.321 180.203,112.487 178.5,118C 177.969,119.718 177.302,119.885 176.5,118.5C 177.028,117.279 177.695,116.113 178.5,115C 177.875,112.2 177.208,109.366 176.5,106.5C 175.833,107.167 175.167,107.833 174.5,108.5C 172.424,108.242 170.091,107.742 167.5,107C 171.114,107.034 173.447,105.367 174.5,102C 169.518,96.0938 163.185,93.9272 155.5,95.5C 155.719,96.675 155.386,97.675 154.5,98.5C 152.185,99.2343 150.352,100.568 149,102.5C 148.667,102.167 148.333,101.833 148,101.5C 147.529,103.246 146.862,104.913 146,106.5C 145.333,107.833 144.667,107.833 144,106.5C 143.333,110.167 143.333,113.833 144,117.5C 144.317,115.699 144.984,115.366 146,116.5C 149.032,114.489 151.532,112.822 153.5,111.5C 159.181,112.025 164.848,112.692 170.5,113.5C 172.847,114.151 174.514,115.484 175.5,117.5C 164.609,111.544 154.275,112.211 144.5,119.5C 139.708,109.361 142.375,101.195 152.5,95C 162.309,91.9487 170.309,94.4487 176.5,102.5 Z"/></g>
<g><path style="opacity:1" fill="#0b6507" d="M 194.5,95.5 C 204.791,102.886 206.958,112.219 201,123.5C 199.296,125.373 197.463,127.04 195.5,128.5C 189.934,131.863 184.267,132.196 178.5,129.5C 186.458,118.1 186.458,106.767 178.5,95.5C 180.364,94.0069 182.53,93.3403 185,93.5C 188.292,93.6551 191.459,94.3218 194.5,95.5 Z"/></g>
<g><path style="opacity:1" fill="#036601" d="M 176.5,118.5 C 175.833,118.5 175.5,118.167 175.5,117.5C 174.514,115.484 172.847,114.151 170.5,113.5C 164.848,112.692 159.181,112.025 153.5,111.5C 151.532,112.822 149.032,114.489 146,116.5C 144.984,115.366 144.317,115.699 144,117.5C 143.333,113.833 143.333,110.167 144,106.5C 144.667,107.833 145.333,107.833 146,106.5C 146.862,104.913 147.529,103.246 148,101.5C 148.333,101.833 148.667,102.167 149,102.5C 150.352,100.568 152.185,99.2343 154.5,98.5C 155.386,97.675 155.719,96.675 155.5,95.5C 163.185,93.9272 169.518,96.0938 174.5,102C 173.447,105.367 171.114,107.034 167.5,107C 170.091,107.742 172.424,108.242 174.5,108.5C 175.167,107.833 175.833,107.167 176.5,106.5C 177.208,109.366 177.875,112.2 178.5,115C 177.695,116.113 177.028,117.279 176.5,118.5 Z"/></g>
<g><path style="opacity:1" fill="#dafeed" d="M 15.5,372.5 C 20.8333,372.5 26.1667,372.5 31.5,372.5C 127.5,372.5 223.5,372.5 319.5,372.5C 221.321,374.173 122.821,375.173 24,375.5C 21.1618,374.309 18.3285,373.309 15.5,372.5 Z"/></g>
</svg>
